<svg xmlns="http://www.w3.org/2000/svg" viewBox="0 0 100 100" width="24">
  <g>
    <path fill="#dd3311" d="M24.3 18.3c0-.3.3-.4.5-.3 2.2 2 3.5 6.8 3.4 9.7 0 0 1-1.1 1.1-2.5 0-.3.4-.4.5-.1C31 26.9 31 29 31 29.7c0 1-.2 2.1-.5 3-.2.5.5.9.9.5 2.6-3 5.1-6.9 5.1-11.3 0-1.2 0-5-2.8-8-.2-.2-.6-.1-.6.2.1 2.5-2.2 4.6-2.2 4.6.3-5-2.4-13.3-7.2-16.2-.3-.2-.6.1-.5.4 1.7 5.3-9.1 10.3-9.1 19 0 4.4 2.5 8.3 5.1 11.3.4.4 1 0 .9-.5-.3-1-.5-2-.5-3 0-5.2 5.2-8.2 4.7-11.4zM84.1 79L49.6 40.5c-2.6-2.6-7.4-1.9-12.2 1.3l3 3c3-1.8 5.5-2.2 6.2-1.5l.1.1c1.1 1.2-.1 5.9-4.6 10.3-4.5 4.5-9.2 5.7-10.3 4.6-.8-.8-.4-3.3 1.4-6.3l-3-3c-3.2 4.8-3.9 9.6-1.2 12.3l38.3 34.3c3.3 3.3 9.5 2.1 14.2-2.6 4.7-4.6 5.8-10.9 2.6-14z"/>
    <path fill="#dd3311" d="M37.7 52.2c.8.8 1.5.2 2.3-.6.8-.8 1.4-1.5.6-2.3L31.3 40c-2.6-2.6-4-5.4-4.1-8.1 0-1.1-1-2-2.1-2s-2 1-2 2.1c.2 3.8 2 7.5 5.3 10.9l9.3 9.3z"/>
  </g>
</svg>
